<svg id="Capa_1" data-name="Capa 1" xmlns="http://www.w3.org/2000/svg" viewBox="0 0 28 28"><defs><style>.cls-1{fill:#c6cdd7;}</style></defs><title>payments</title><path class="cls-1" d="M17.63208,11.14209v-.65576a8.45259,8.45259,0,0,1-1.42285-.13574V9.42334a6.89391,6.89391,0,0,0,1.44678.20752c.688,0,1.16748-.21582,1.16748-.90332,0-1.31152-2.68653-.35986-2.68653-2.45459a1.54324,1.54324,0,0,1,1.49512-1.64746V3.85791h.856v.71191a7.72713,7.72713,0,0,1,1.08691.104v.86328a7.95339,7.95339,0,0,0-1.19922-.12793c-.63135,0-1.19922.15186-1.19922.75977,0,1.27929,2.68653.25585,2.68653,2.52636a1.61787,1.61787,0,0,1-1.375,1.6792v.76758Z"/><path class="cls-1" d="M14.541,26.077H5.77v-1h8.771c4.77978,0,5.22265-.58447,5.69091-1.20361a4.56779,4.56779,0,0,1,.41846-.49659l3.23145-3.23144c.80029-.80078.64355-.95752.46142-1.13965-.25635-.25586-.9331-.30664-1.731.09375a9.28157,9.28157,0,0,0-1.03369.7207c-1.17773.88721-2.791,2.10205-4.26806,2.10205-1.8833,0-2.9209,0-4.43213-1.00732a1.16437,1.16437,0,0,1-.64112-1.14014c.10059-.75,1.04737-1.38476,3.06885-2.05859a1.4764,1.4764,0,0,0,1.03565-.9834,1.00436,1.00436,0,0,0-.30811-.9585c-.73633-.48339-6.208,1.83692-7.602,3.23145-1.59326,1.59375-2.75684,1.081-2.88525,1.01709l.44726-.89453L5.77,19.5755l.20605-.45556c.02735.01172.67334.2539,1.74854-.82129a16.706,16.706,0,0,1,4.48779-2.58887c3.64405-1.52734,4.31055-.86133,4.52832-.64258a1.99568,1.99568,0,0,1,.57422,1.89551,2.45943,2.45943,0,0,1-1.69238,1.70215c-2.1875.729-2.38135,1.20361-2.39356,1.24121a.84462.84462,0,0,0,.20411.17676c1.25927.83935,2.07959.83935,3.87744.83935,1.14258,0,2.60156-1.09863,3.6665-1.90087a9.19744,9.19744,0,0,1,1.188-.81641,2.50583,2.50583,0,0,1,2.88525.09375c1.04639,1.0459-.01025,2.10254-.46142,2.55371l-3.23145,3.23145a3.578,3.578,0,0,0-.32812.39306C20.27583,25.47248,19.46284,26.077,14.541,26.077Z"/><path class="cls-1" d="M4.77,26.99982H3v-1H4.77a.50034.50034,0,0,0,.5-.5v-6.771a.50034.50034,0,0,0-.5-.5H3v-1H4.77a1.50164,1.50164,0,0,1,1.5,1.5v6.771A1.50164,1.50164,0,0,1,4.77,26.99982Z"/><path class="cls-1" d="M17.99995,13.99982a6.5,6.5,0,1,1,6.5-6.5A6.50753,6.50753,0,0,1,17.99995,13.99982Zm0-12a5.5,5.5,0,1,0,5.5,5.5A5.50623,5.50623,0,0,0,17.99995,1.99982Z"/></svg>