<svg id="Capa_1" data-name="Capa 1" xmlns="http://www.w3.org/2000/svg" viewBox="0 0 28 28"><defs><style>.cls-1{fill:#41a3ff;}</style></defs><title>politics-center</title><path class="cls-1" d="M16.00021,22.49982h-12a2.50294,2.50294,0,0,1-2.5-2.5v-12a2.50294,2.50294,0,0,1,2.5-2.5h17a2.50294,2.50294,0,0,1,2.5,2.5v2h-1v-2a1.50164,1.50164,0,0,0-1.5-1.5h-17a1.50164,1.50164,0,0,0-1.5,1.5v12a1.50164,1.50164,0,0,0,1.5,1.5h12Z"/><rect class="cls-1" x="5.00021" y="8.49982" width="2" height="1"/><rect class="cls-1" x="9.00021" y="8.49982" width="2" height="1"/><rect class="cls-1" x="13.00021" y="8.49982" width="2" height="1"/><polygon class="cls-1" points="20 19.707 16.647 16.353 17.354 15.646 20 18.293 25.647 12.646 26.354 13.353 20 19.707"/></svg>
