<svg id="Capa_1" data-name="Capa 1" xmlns="http://www.w3.org/2000/svg" viewBox="0 0 28 28"><defs><style>.cls-1{fill:#c6cdd7;}</style></defs><title>propiedad-cuenta</title><path class="cls-1" d="M5.11364,18.93976A.50007.50007,0,0,1,4.62,18.51593a9.98155,9.98155,0,0,1-.12012-1.51611v-6A9.99137,9.99137,0,0,1,4.62,9.48371a9.54887,9.54887,0,0,1,3.91455-6.249,9.50618,9.50618,0,0,1,14.84521,6.2461.49995.49995,0,0,1-.9873.1582,8.39385,8.39385,0,0,0-2.38526-4.64453A8.49075,8.49075,0,0,0,18.89,4.05256,8.503,8.503,0,0,0,5.60778,9.64a8.9728,8.9728,0,0,0-.10791,1.35986v6a8.9914,8.9914,0,0,0,.1084,1.36377.49994.49994,0,0,1-.418.57031A.511.511,0,0,1,5.11364,18.93976Z"/><path class="cls-1" d="M13.99987,26.49982a9.39855,9.39855,0,0,1-5.4668-1.73633.49979.49979,0,0,1,.57813-.81543,8.50324,8.50324,0,0,0,13.28125-5.58838,8.86186,8.86186,0,0,0,.10742-1.35986v-3a.5.5,0,0,1,1,0v3a9.99813,9.99813,0,0,1-.11963,1.51563A9.54642,9.54642,0,0,1,19.46569,24.765,9.4002,9.4002,0,0,1,13.99987,26.49982Z"/><path class="cls-1" d="M19.99987,17.49982a.49971.49971,0,0,1-.5-.5v-6a5.46315,5.46315,0,0,0-1.61133-3.88818c-.12793-.12744-.25488-.24414-.394-.36035a.50015.50015,0,0,1,.64258-.76661c.16162.13575.31006.271.45849.41993a6.45629,6.45629,0,0,1,1.9043,4.59521v6A.49971.49971,0,0,1,19.99987,17.49982Z"/><path class="cls-1" d="M13.99987,23.49982a6.4953,6.4953,0,0,1-6.5-6.5v-6A6.49871,6.49871,0,0,1,9.8651,5.98322a.49971.49971,0,1,1,.6377.76953,5.50338,5.50338,0,0,0-2.00293,4.24707v6a5.50437,5.50437,0,0,0,2.00293,4.24756,5.58936,5.58936,0,0,0,6.99561-.00147.49991.49991,0,0,1,.63476.77247A6.52851,6.52851,0,0,1,13.99987,23.49982Z"/><path class="cls-1" d="M10.99987,15.99982a.49971.49971,0,0,1-.5-.5v-4.5a3.44845,3.44845,0,0,1,.70166-2.10205,3.50572,3.50572,0,0,1,5.27393-.37744,3.25545,3.25545,0,0,1,.32714.38379,3.43628,3.43628,0,0,1,.69727,2.0957.5.5,0,0,1-1,0,2.45239,2.45239,0,0,0-.49805-1.49707,2.30942,2.30942,0,0,0-.23144-.27344,2.58908,2.58908,0,0,0-3.771.271,2.45981,2.45981,0,0,0-.49951,1.49951v4.5A.49971.49971,0,0,1,10.99987,15.99982Z"/><path class="cls-1" d="M13.99987,20.49982a3.51938,3.51938,0,0,1-2.79932-1.39941.49971.49971,0,0,1,.79883-.60059,2.501,2.501,0,0,0,4.001,0,2.4581,2.4581,0,0,0,.49951-1.5v-3a.5.5,0,0,1,1,0v3a3.4455,3.4455,0,0,1-.70215,2.103A3.51915,3.51915,0,0,1,13.99987,20.49982Z"/></svg>