<svg id="Capa_1" data-name="Capa 1" xmlns="http://www.w3.org/2000/svg" viewBox="0 0 28 28"><defs><style>.cls-1{fill:#41a3ff;}</style></defs><title>users-admin</title><path class="cls-1" d="M1.29457,25.49982a.52869.52869,0,0,1-.07763-.00586.50037.50037,0,0,1-.417-.57129c.1294-.82812.88623-1.82763,5.51026-3.52051.77392-.28271,1.3916-.48535,1.88476-.64746,1.59034-.52246,1.59034-.52246,1.582-1.92382l-.00146-.45215a1.26155,1.26155,0,0,0-.32764-1.03467,5.56937,5.56937,0,0,1-1.14257-2.98779,1.57874,1.57874,0,0,0-.24122-.75049,4.92718,4.92718,0,0,1-.64257-1.7876,2.36758,2.36758,0,0,1,.05371-1.51807.56556.56556,0,0,0,.05761-.27295l-.03906-.39794c-.041-.41065-.08789-.88477-.15967-1.69776A5.1081,5.1081,0,0,1,8.72866,4.38019a6.09442,6.09442,0,0,1,4.70068-1.88037,6.87007,6.87007,0,0,1,3.10937.6792.49984.49984,0,1,1-.44824.89355,5.89043,5.89043,0,0,0-2.66113-.57275A5.1182,5.1182,0,0,0,9.46694,5.055,4.09762,4.09762,0,0,0,8.33022,7.84259c.07129.8086.11816,1.27979.15869,1.68848l.03906.40039a1.50049,1.50049,0,0,1-.11181.70752,1.40207,1.40207,0,0,0-.02.95557A3.97329,3.97329,0,0,0,8.904,13.06281a2.50148,2.50148,0,0,1,.38721,1.126,4.66158,4.66158,0,0,0,.93945,2.53222,2.217,2.217,0,0,1,.54492,1.65772l.00146.44629c.01172,1.99072-.13671,2.17871-2.27,2.87988-.48536.15918-1.09278.3584-1.853.63672C2.55776,23.84113,1.84731,24.699,1.78823,25.077A.50042.50042,0,0,1,1.29457,25.49982Z"/><path class="cls-1" d="M25.57094,25.49347a.50032.50032,0,0,1-.49268-.41845c-.07666-.46192-.98291-1.312-4.86718-2.74024-.76172-.2793-1.36963-.48-1.855-.64014-2.13086-.70312-2.2793-.8916-2.26758-2.877l.00146-.44531a2.21824,2.21824,0,0,1,.54493-1.6582c.05322-.06641.10986-.1377.16845-.22022a.50007.50007,0,0,1,.81543.5791c-.07031.09864-.13769.1836-.20117.26367A1.26325,1.26325,0,0,0,17.09,18.37238l-.00146.45117c-.0083,1.397-.0083,1.397,1.58105,1.92139.49317.1626,1.11182.3667,1.88623.65137,4.61084,1.69482,5.37256,2.6914,5.50879,3.51562a.49941.49941,0,0,1-.41162.57471A.47305.47305,0,0,1,25.57094,25.49347Z"/><path class="cls-1" d="M19.07289,15.49982a1.00275,1.00275,0,0,1-1.00146-1.00293v-.25342a4.48035,4.48035,0,0,1-.43945-.1831l-.17969.17969a.9938.9938,0,0,1-.7085.29394h-.001a.995.995,0,0,1-.7085-.29346l-.70313-.70263a1.00319,1.00319,0,0,1,0-1.419l.17969-.17969a4.41122,4.41122,0,0,1-.18262-.43945h-.25341a1.0038,1.0038,0,0,1-1.00293-1.00293l-.00049-.99316a1.00433,1.00433,0,0,1,1.00293-1.00391h.2539a4.40193,4.40193,0,0,1,.18262-.439l-.17969-.17969a1.0054,1.0054,0,0,1-.00048-1.41846l.70312-.70312a1.0271,1.0271,0,0,1,1.41846,0l.17969.17968a4.41016,4.41016,0,0,1,.43945-.18261V5.50324a1.00422,1.00422,0,0,1,1.00342-1.00293h.99365a1.00381,1.00381,0,0,1,1.00293,1.00293v.25342a4.41114,4.41114,0,0,1,.43945.18261l.17969-.17968a1.0271,1.0271,0,0,1,1.41846,0l.70263.70263a1.00258,1.00258,0,0,1-.00049,1.41895l-.17919.1792a4.459,4.459,0,0,1,.18261.43945h.25293a1.00475,1.00475,0,0,1,1.00391,1.00342v.99365a1.00381,1.00381,0,0,1-1.00293,1.00293h-.25342a4.543,4.543,0,0,1-.1831.43994l.17968.1792a1.00258,1.00258,0,0,1-.00049,1.419l-.70214.70263a1.00435,1.00435,0,0,1-1.418,0l-.18018-.17968a4.41114,4.41114,0,0,1-.43945.18261v.25342a1.00381,1.00381,0,0,1-1.00293,1.00293h-.99561ZM17.46108,12.8172l.334.19776a3.49367,3.49367,0,0,0,.90137.375l.375.09668v1.01025l.99707.00293.00293-1.01367.37549-.09668a3.44014,3.44014,0,0,0,.90088-.37451l.334-.19776.71631.71631.70654-.70312-.71582-.71924.19727-.334a3.46753,3.46753,0,0,0,.375-.90234l.09716-.375H24.0685l.00293-.99658V9.50177l-.62549-.00146-.3877.00049-.09716-.37549a3.46753,3.46753,0,0,0-.375-.90234l-.19678-.334.71533-.71533-.70264-.707-.71972.71533-.334-.19678a3.46391,3.46391,0,0,0-.90136-.37451L20.07143,6.514V5.50324l-.99658-.00293L19.07143,6.514l-.37549.09668a3.464,3.464,0,0,0-.90137.37451l-.334.19678-.71533-.71533-.707.70263.71582.71973-.19727.334a3.45961,3.45961,0,0,0-.37451.90185l-.09668.376-1.01172-.001-.00195.99707,1.01367.00293.09668.37549a3.46524,3.46524,0,0,0,.374.90137l.19776.33349-.71582.71582.70312.70752Zm2.10107-.31494a2.46216,2.46216,0,0,1-1.70947-.688,2.54046,2.54046,0,0,1-.54785-2.89795A2.32834,2.32834,0,0,1,18.51576,7.7215a2.53132,2.53132,0,0,1,2.4292.19043,2.49605,2.49605,0,0,1,1.12647,2.085v.103a2.35612,2.35612,0,0,1-1.26856,2.09765h-.00048A2.75941,2.75941,0,0,1,19.56215,12.50226Zm.01026-4.001a1.69261,1.69261,0,0,0-.66456.14013,1.31672,1.31672,0,0,0-.687.67627,1.52947,1.52947,0,0,0,.31983,1.77051,1.55106,1.55106,0,0,0,1.8125.21582h-.00049a1.3479,1.3479,0,0,0,.71875-1.2041V9.99738a1.49786,1.49786,0,0,0-1.499-1.49609Z"/></svg>
