<svg xmlns="http://www.w3.org/2000/svg" viewBox="0 0 20 20"><defs><style>.cls-1{fill:#cbd1de;}</style></defs><title>ico-ayuda</title><g id="Capa_2" data-name="Capa 2"><g id="Capa_1-2" data-name="Capa 1"><path class="cls-1" d="M10,2a8,8,0,1,1-8,8,8,8,0,0,1,8-8m0-2A10,10,0,1,0,20,10,10,10,0,0,0,10,0Z"/><path class="cls-1" d="M8.89,12a4.15,4.15,0,0,1,.23-1.52A3.14,3.14,0,0,1,10,9.31a4.38,4.38,0,0,0,.83-.9,1.46,1.46,0,0,0,.2-.73c0-.77-.35-1.16-1.06-1.16a1.07,1.07,0,0,0-.81.32,1.17,1.17,0,0,0-.32.85h-2a2.64,2.64,0,0,1,.85-2,3.3,3.3,0,0,1,2.27-.74,3.27,3.27,0,0,1,2.24.7,2.48,2.48,0,0,1,.8,2,2.32,2.32,0,0,1-.26,1.1,4.24,4.24,0,0,1-.91,1.15l-.55.52a1.94,1.94,0,0,0-.59,1.17l0,.42Zm-.2,2.1A1,1,0,0,1,9,13.29,1.14,1.14,0,0,1,9.8,13a1.11,1.11,0,0,1,.79.29,1.05,1.05,0,0,1,0,1.5,1.25,1.25,0,0,1-1.6,0A1,1,0,0,1,8.69,14.05Z"/></g></g></svg>