<svg id="Capa_1" data-name="Capa 1" xmlns="http://www.w3.org/2000/svg" viewBox="0 0 28 28"><defs><style>.cls-1{fill:#41a3ff;}</style></defs><title>help</title><path class="cls-1" d="M12.75,21.06476H3.17575A2.42876,2.42876,0,0,1,.75,18.639V7.08332A2.42875,2.42875,0,0,1,3.17575,4.65754H19.54636a2.42875,2.42875,0,0,1,2.42578,2.42578V9.0091h-1V7.08332a1.42745,1.42745,0,0,0-1.42578-1.42578H3.17575A1.42745,1.42745,0,0,0,1.75,7.08332V18.639a1.42746,1.42746,0,0,0,1.42578,1.42578H12.75Z"/><rect class="cls-1" x="4.13913" y="7.54621" width="1.92578" height="1"/><rect class="cls-1" x="7.99069" y="7.54621" width="1.92578" height="1"/><rect class="cls-1" x="11.84274" y="7.54621" width="1.92578" height="1"/><path class="cls-1" d="M20.79636,23.34259v-1A5.45361,5.45361,0,1,0,15.34274,16.889h-1a6.45362,6.45362,0,1,1,6.45362,6.45361Z"/><path class="cls-1" d="M20.79636,23.34259H15.97653a1.63574,1.63574,0,0,1-1.63379-1.63427V16.889h1v4.81934a.63474.63474,0,0,0,.63379.63427h4.81983Z"/><path class="cls-1" d="M20.21622,18.00608A2.35464,2.35464,0,0,1,20.349,17.134a1.78611,1.78611,0,0,1,.48633-.63916,2.4826,2.4826,0,0,0,.4707-.51221.80458.80458,0,0,0,.11719-.417q0-.66064-.60938-.66114a.61723.61723,0,0,0-.46289.17823.70145.70145,0,0,0-.18164.49121H19.03653a1.50693,1.50693,0,0,1,.48242-1.169,1.87718,1.87718,0,0,1,1.29492-.42236,1.88646,1.88646,0,0,1,1.28516.40088,1.4254,1.4254,0,0,1,.457,1.13183,1.37509,1.37509,0,0,1-.14844.62745,2.59367,2.59367,0,0,1-.51953.65527l-.3164.30078a1.07454,1.07454,0,0,0-.33985.669l-.01562.23828Zm-.11328,1.19726a.56785.56785,0,0,1,.17773-.43017.69584.69584,0,0,1,.91016,0,.60713.60713,0,0,1,.0039.85449.71266.71266,0,0,1-.918,0A.56389.56389,0,0,1,20.10294,19.20334Z"/></svg>
