<svg id="Capa_1" data-name="Capa 1" xmlns="http://www.w3.org/2000/svg" viewBox="0 0 28 28"><defs><style>.cls-1{fill:#c6cdd7;}</style></defs><title>monetization</title><path class="cls-1" d="M10.4663,24.82257a11.164,11.164,0,0,1-3.03662-1.52294l.58105-.81446a10.13809,10.13809,0,0,0,2.76416,1.38623Z"/><path class="cls-1" d="M13.49413,19.46369v-.99951a12.85141,12.85141,0,0,1-2.17041-.20752V16.84259a10.49538,10.49538,0,0,0,2.207.3169c1.04834,0,1.77979-.3291,1.77979-1.37744,0-1.99951-4.09619-.54883-4.09619-3.74317a2.352,2.352,0,0,1,2.27978-2.51123V8.35724h1.3042v1.085a11.8416,11.8416,0,0,1,1.6582.15821V10.9173a12.14889,12.14889,0,0,0-1.82861-.19482c-.96338,0-1.82861.23144-1.82861,1.1582,0,1.95068,4.09619.39014,4.09619,3.85254a2.46637,2.46637,0,0,1-2.09717,2.56006v1.17041Z"/><path class="cls-1" d="M5.94726,22.053A11.38828,11.38828,0,0,1,14,2.6131v1A10.38634,10.38634,0,0,0,6.65429,21.346Z"/><path class="cls-1" d="M19.98974,5.51447a10.17446,10.17446,0,0,0-2.76465-1.38574l.30859-.95117A11.1803,11.1803,0,0,1,20.56981,4.7Z"/><polygon class="cls-1" points="11.741 6.079 11.034 5.372 13.293 3.113 11.034 0.853 11.741 0.146 14.707 3.113 11.741 6.079"/><polygon class="cls-1" points="16.259 27.853 13.293 24.887 16.259 21.921 16.966 22.628 14.707 24.887 16.966 27.146 16.259 27.853"/><path class="cls-1" d="M14,25.387v-1a10.38567,10.38567,0,0,0,7.3457-17.73291l.707-.707A11.38828,11.38828,0,0,1,14,25.387Z"/></svg>