<svg id="Capa_1" data-name="Capa 1" xmlns="http://www.w3.org/2000/svg" viewBox="0 0 28 28"><defs><style>.cls-1{fill:#c6cdd7;}</style></defs><title>dashboard</title><path class="cls-1" d="M23.5,22.49982H4.5a1.50164,1.50164,0,0,1-1.5-1.5v-5H4v5a.50034.50034,0,0,0,.5.5h19a.50034.50034,0,0,0,.5-.5v-6h1v6A1.50164,1.50164,0,0,1,23.5,22.49982Z"/><path class="cls-1" d="M10.45947,17.50031A3.04318,3.04318,0,0,1,8.0918,16.24787l-2.46631-3.0835a1.97372,1.97372,0,0,0-1.59424-.83349,2.01612,2.01612,0,0,0-1.56738.88281l-.564.752-.7998-.60058.564-.75147a2.99087,2.99087,0,0,1,2.35157-1.28271,2.89419,2.89419,0,0,1,2.39111,1.20849L8.873,15.62287a2.04889,2.04889,0,0,0,1.67627.875,2.04046,2.04046,0,0,0,1.57275-1.05078l2.54-3.9917a2.97921,2.97921,0,0,1,4.27441-.83008l1.96387,1.40234a2.09747,2.09747,0,0,0,2.57715-.21338l2.66894-2.66894.707.707-2.66895,2.669a3.1053,3.1053,0,0,1-3.86523.31982l-1.96387-1.40234a1.97917,1.97917,0,0,0-2.84961.55371l-2.54,3.9917A3.01039,3.01039,0,0,1,10.603,17.4964C10.55518,17.49884,10.50732,17.50031,10.45947,17.50031Z"/><path class="cls-1" d="M4,8.99982H3v-2a1.50164,1.50164,0,0,1,1.5-1.5h9v1h-9a.50034.50034,0,0,0-.5.5Z"/></svg>