<svg id="Capa_1" data-name="Capa 1" xmlns="http://www.w3.org/2000/svg" viewBox="0 0 28 28"><defs><style>.cls-1{fill:#c6cdd7;}</style></defs><title>add-websites</title><rect class="cls-1" x="21.50023" y="17.49982" width="1" height="2"/><path class="cls-1" d="M15.00023,21.99982h-12a2.50294,2.50294,0,0,1-2.5-2.5v-12a2.50294,2.50294,0,0,1,2.5-2.5h17a2.50294,2.50294,0,0,1,2.5,2.5v2h-1v-2a1.50164,1.50164,0,0,0-1.5-1.5h-17a1.50164,1.50164,0,0,0-1.5,1.5v12a1.50164,1.50164,0,0,0,1.5,1.5h12Z"/><rect class="cls-1" x="4.00023" y="7.99982" width="2" height="1"/><rect class="cls-1" x="8.00023" y="7.99982" width="2" height="1"/><rect class="cls-1" x="12.00023" y="7.99982" width="2" height="1"/><rect class="cls-1" x="21.50023" y="14.49982" width="1" height="6"/><rect class="cls-1" x="19.00023" y="16.99982" width="6" height="1"/><path class="cls-1" d="M22.00023,22.99982a5.5,5.5,0,1,1,5.5-5.5A5.50622,5.50622,0,0,1,22.00023,22.99982Zm0-10a4.5,4.5,0,1,0,4.5,4.5A4.50492,4.50492,0,0,0,22.00023,12.99982Z"/></svg>