<svg id="Capa_1" data-name="Capa 1" xmlns="http://www.w3.org/2000/svg" viewBox="0 0 28 28"><defs><style>.cls-1{fill:#41a3ff;}</style></defs><title>notifications</title><path class="cls-1" d="M24.6668,22.49982H3.33331a.49993.49993,0,0,1-.42871-.75732l1.0498-1.7461c1.917-3.17041,2.87891-4.76172,2.87891-8.66308a7.16675,7.16675,0,0,1,14.33349,0c0,3.90088.96192,5.49218,2.87793,8.66259l1.05078,1.74659a.50016.50016,0,0,1-.42871.75732Zm-20.45019-1H23.7835l-.59472-.98682c-1.94873-3.22412-3.022-5-3.022-9.17968a6.16675,6.16675,0,0,0-12.33349,0c0,4.18017-1.07373,5.95605-3.02295,9.18066Z"/><path class="cls-1" d="M10.015,11.33332h-1a4.99068,4.99068,0,0,1,4.98486-4.98487v1A3.98937,3.98937,0,0,0,10.015,11.33332Z"/><path class="cls-1" d="M13.99981,26.49982a3.17,3.17,0,0,1-3.1665-3.1665v-1.8335H17.1668v1.8335A3.17041,3.17041,0,0,1,13.99981,26.49982Zm-2.1665-4v.8335a2.16675,2.16675,0,0,0,4.33349,0v-.8335Z"/><path class="cls-1" d="M13.99981,5.16681a.49971.49971,0,0,1-.5-.5v-2.667a.5.5,0,1,1,1,0v2.667A.49971.49971,0,0,1,13.99981,5.16681Z"/></svg>
