<svg id="Capa_1" data-name="Capa 1" xmlns="http://www.w3.org/2000/svg" viewBox="0 0 28 28"><defs><style>.cls-1{fill:#c6cdd7;}</style></defs><title>websites</title><path class="cls-1" d="M22.49983,22.49982h-17a2.50294,2.50294,0,0,1-2.5-2.5v-12a2.50294,2.50294,0,0,1,2.5-2.5h17a2.50294,2.50294,0,0,1,2.5,2.5v12A2.50294,2.50294,0,0,1,22.49983,22.49982Zm-17-16a1.50164,1.50164,0,0,0-1.5,1.5v12a1.50164,1.50164,0,0,0,1.5,1.5h17a1.50164,1.50164,0,0,0,1.5-1.5v-12a1.50164,1.50164,0,0,0-1.5-1.5Z"/><rect class="cls-1" x="6.49983" y="8.49982" width="2" height="1"/><rect class="cls-1" x="10.49983" y="8.49982" width="2" height="1"/><rect class="cls-1" x="14.49983" y="8.49982" width="2" height="1"/></svg>