<svg id="Capa_1" data-name="Capa 1" xmlns="http://www.w3.org/2000/svg" viewBox="0 0 28 28"><defs><style>.cls-1{fill:#ffffff;}</style></defs><title>notifications-topbar</title><path class="cls-1" d="M24.67,22.5H3.33a.5.5,0,0,1-.43-.25.52.52,0,0,1,0-.51L4,20c1.92-3.17,2.88-4.77,2.88-8.67a7.17,7.17,0,0,1,14.34,0c0,3.9,1,5.5,2.87,8.67l1.06,1.74a.52.52,0,0,1,0,.51A.5.5,0,0,1,24.67,22.5Zm-20.45-1H23.78l-.59-1c-2-3.22-3-5-3-9.18a6.17,6.17,0,0,0-12.34,0c0,4.18-1.07,6-3,9.18Z"/><path class="cls-1" d="M10,11.33H9a5,5,0,0,1,5-5v1A4,4,0,0,0,10,11.33Z"/><path class="cls-1" d="M14,26.5a3.17,3.17,0,0,1-3.17-3.17V21.5h6.34v1.83A3.17,3.17,0,0,1,14,26.5Zm-2.17-4v.83a2.17,2.17,0,0,0,4.34,0V22.5Z"/><path class="cls-1" d="M14,5.17a.5.5,0,0,1-.5-.5V2a.5.5,0,0,1,1,0V4.67A.5.5,0,0,1,14,5.17Z"/></svg>
