<svg id="Capa_1" data-name="Capa 1" xmlns="http://www.w3.org/2000/svg" viewBox="0 0 28 28"><defs><style>.cls-1{fill:#41a3ff;}</style></defs><title>account</title><path class="cls-1" d="M1.86158,25.49982a.52892.52892,0,0,1-.07764-.00586.50036.50036,0,0,1-.417-.57129c.12939-.82812.88672-1.82763,5.51074-3.52051.77393-.28271,1.3916-.48535,1.88477-.64746,1.59033-.52246,1.59033-.52246,1.582-1.92382l-.00147-.45215a1.26158,1.26158,0,0,0-.32763-1.03467,5.568,5.568,0,0,1-1.14307-2.98779,1.5789,1.5789,0,0,0-.24121-.75049,4.93115,4.93115,0,0,1-.64258-1.7876,2.36765,2.36765,0,0,1,.05371-1.51807.5656.5656,0,0,0,.05762-.27295L8.06128,9.637c-.04052-.41211-.0874-.88721-.16015-1.70508A5.10907,5.10907,0,0,1,9.29566,4.38019a6.09569,6.09569,0,0,1,4.70117-1.88037,6.10247,6.10247,0,0,1,4.69629,1.874,5.12576,5.12576,0,0,1,1.40576,3.54981c-.07226.81787-.11914,1.28955-.15918,1.69824l-.03955.39893a.5666.5666,0,0,0,.05762.27295,2.36762,2.36762,0,0,1,.05371,1.51806,4.93037,4.93037,0,0,1-.644,1.79395,1.564,1.564,0,0,0-.23926.74316,5.57133,5.57133,0,0,1-1.14356,2.98828,1.26277,1.26277,0,0,0-.32763,1.03516l-.00147.45117c-.0083,1.397-.0083,1.397,1.58106,1.92139.49316.1626,1.11181.3667,1.88623.65137,4.61133,1.69531,5.373,2.6914,5.50928,3.51562a.49986.49986,0,0,1-.98633.16309c-.07666-.46192-.98291-1.312-4.86768-2.74024-.76172-.2793-1.36963-.48-1.855-.64014-2.13086-.70312-2.2793-.8916-2.26758-2.877l.00147-.44531a2.215,2.215,0,0,1,.54541-1.65772,4.67822,4.67822,0,0,0,.93994-2.53369,2.47524,2.47524,0,0,1,.38574-1.11865,3.98327,3.98327,0,0,0,.50879-1.47412,1.40358,1.40358,0,0,0-.02-.95606,1.49814,1.49814,0,0,1-.11182-.707l.03956-.40185c.04-.40625.08642-.875.1582-1.686A4.11414,4.11414,0,0,0,17.9563,5.05011a5.12709,5.12709,0,0,0-3.95947-1.55029A5.121,5.121,0,0,0,10.03394,5.055,4.09841,4.09841,0,0,0,8.89722,7.84259c.07227.814.11914,1.28614.15967,1.69629l.03809.39258a1.50035,1.50035,0,0,1-.11182.70752,1.40207,1.40207,0,0,0-.02.95557A3.96408,3.96408,0,0,0,9.471,13.06232a2.4945,2.4945,0,0,1,.38721,1.12647,4.67,4.67,0,0,0,.93945,2.53222,2.215,2.215,0,0,1,.54541,1.65772l.00147.44629c.01172,1.99072-.13672,2.17871-2.27,2.87988-.48535.15918-1.09278.3584-1.853.63672C3.12476,23.84113,2.41431,24.699,2.35523,25.077A.50041.50041,0,0,1,1.86158,25.49982Z"/></svg>
