<svg id="Capa_1" data-name="Capa 1" xmlns="http://www.w3.org/2000/svg" viewBox="0 0 28 28"><defs><style>.cls-1{fill:#41a3ff;}</style></defs><title>billing</title><path class="cls-1" d="M18.96059,22.91193H6.45082a2.33581,2.33581,0,0,1-2.333-2.3335V4.83332a2.33581,2.33581,0,0,1,2.333-2.3335H18.96059a2.33623,2.33623,0,0,1,2.33349,2.3335V20.57843A2.33623,2.33623,0,0,1,18.96059,22.91193ZM6.45082,3.49982a1.33483,1.33483,0,0,0-1.333,1.3335V20.57843a1.33482,1.33482,0,0,0,1.333,1.3335H18.96059a1.33492,1.33492,0,0,0,1.33349-1.3335V4.83332a1.33493,1.33493,0,0,0-1.33349-1.3335Z"/><rect class="cls-1" x="8.50014" y="8.32355" width="8.41162" height="1"/><rect class="cls-1" x="8.50014" y="11.5589" width="8.41162" height="1"/><rect class="cls-1" x="8.50014" y="14.79425" width="5.17627" height="1"/><path class="cls-1" d="M21.549,25.49982H10.98061a2.33582,2.33582,0,0,1-2.3335-2.333v-.917h1v.917a1.33483,1.33483,0,0,0,1.3335,1.333H21.549a1.33482,1.33482,0,0,0,1.33349-1.333V8.71564A1.33493,1.33493,0,0,0,21.549,7.38214h-.34668v-1H21.549a2.33623,2.33623,0,0,1,2.33349,2.3335V23.16681A2.33581,2.33581,0,0,1,21.549,25.49982Z"/></svg>
